<?xml version="1.0" encoding="UTF-8" standalone="no"?>
<!DOCTYPE svg PUBLIC "-//W3C//DTD SVG 1.1//EN"
 "http://www.w3.org/Graphics/SVG/1.1/DTD/svg11.dtd">
<!-- Generated by graphviz version 2.38.0 (20140413.2041)
 -->
<!-- Title: G Pages: 1 -->
<svg width="495pt" height="149pt"
 viewBox="0.00 0.00 494.71 149.00" xmlns="http://www.w3.org/2000/svg" xmlns:xlink="http://www.w3.org/1999/xlink">
<g id="graph0" class="graph" transform="scale(1 1) rotate(0) translate(4 145)">
<title>G</title>
<polygon fill="white" stroke="none" points="-4,4 -4,-145 490.706,-145 490.706,4 -4,4"/>
<g id="clust1" class="cluster"><title>cluster_Global</title>
<path fill="none" stroke="gray" d="M296.349,-8C296.349,-8 466.706,-8 466.706,-8 472.706,-8 478.706,-14 478.706,-20 478.706,-20 478.706,-121 478.706,-121 478.706,-127 472.706,-133 466.706,-133 466.706,-133 296.349,-133 296.349,-133 290.349,-133 284.349,-127 284.349,-121 284.349,-121 284.349,-20 284.349,-20 284.349,-14 290.349,-8 296.349,-8"/>
<text text-anchor="middle" x="381.528" y="-120.2" font-family="Times,serif" font-size="11.00" fill="gray">Global</text>
</g>
<!-- \\Nk_Db_Table_NestedSet_Exception -->
<g id="node1" class="node"><title>\\Nk_Db_Table_NestedSet_Exception</title>
<polygon fill="none" stroke="black" points="470.885,-106 292.17,-106 292.17,-70 470.885,-70 470.885,-106"/>
<text text-anchor="middle" x="381.528" y="-84.7" font-family="Times,serif" font-size="11.00">Nk_Db_Table_NestedSet_Exception</text>
</g>
<!-- \\Zend_Db_Table_Exception -->
<g id="node3" class="node"><title>\\Zend_Db_Table_Exception</title>
<ellipse fill="none" stroke="black" cx="110.174" cy="-88" rx="110.349" ry="18"/>
<text text-anchor="middle" x="110.174" y="-83.8" font-family="Times,serif" font-size="14.00" fill="gray">\Zend_Db_Table_Exception</text>
</g>
<!-- \\Nk_Db_Table_NestedSet_Exception&#45;&gt;\\Zend_Db_Table_Exception -->
<g id="edge1" class="edge"><title>\\Nk_Db_Table_NestedSet_Exception&#45;&gt;\\Zend_Db_Table_Exception</title>
<path fill="none" stroke="black" d="M292.331,-88C272.685,-88 251.535,-88 230.863,-88"/>
<polygon fill="none" stroke="black" points="230.761,-84.5001 220.761,-88 230.761,-91.5001 230.761,-84.5001"/>
</g>
<!-- \\Nk_Db_Table_NestedTree -->
<g id="node2" class="node"><title>\\Nk_Db_Table_NestedTree</title>
<polygon fill="none" stroke="black" points="448.498,-52 314.557,-52 314.557,-16 448.498,-16 448.498,-52"/>
<text text-anchor="middle" x="381.528" y="-30.7" font-family="Times,serif" font-size="11.00">Nk_Db_Table_NestedTree</text>
</g>
<!-- \\Zend_Db_Table -->
<g id="node4" class="node"><title>\\Zend_Db_Table</title>
<ellipse fill="none" stroke="black" cx="110.174" cy="-34" rx="69.7992" ry="18"/>
<text text-anchor="middle" x="110.174" y="-29.8" font-family="Times,serif" font-size="14.00" fill="gray">\Zend_Db_Table</text>
</g>
<!-- \\Nk_Db_Table_NestedTree&#45;&gt;\\Zend_Db_Table -->
<g id="edge2" class="edge"><title>\\Nk_Db_Table_NestedTree&#45;&gt;\\Zend_Db_Table</title>
<path fill="none" stroke="black" d="M314.291,-34C276.892,-34 229.902,-34 190.54,-34"/>
<polygon fill="none" stroke="black" points="190.446,-30.5001 180.446,-34 190.446,-37.5001 190.446,-30.5001"/>
</g>
</g>
</svg>
